PathFileType	4	(X/Y/Z)	C:\Users\Willi\SynologyDrive\Deimel_MSc_Deadlift\Athlete_03\Athlete_3_22_07_06\dl_80\marker_experimental.trc
DataRate	CameraRate	NumFrames	NumMarkers	Units	OrigDataRate	OrigDataStartFrame	OrigNumFrames
200.000000	200.000000	4	59	mm	200.000000	1654	3308
Frame#	Time	BL			BR			GLAB			RFHD			LFHD			C7			T6			SPINMOL			SPINM2			SPINM3			T12			BELTOL			BELT2			BELT3			SACROL			SACR2			SACR3			LTHOL			LTH2			LTH3			LSHAOL			LSHA2			LSHA3			LHEE			LTOE			LM5			RTHOL			RTH2			RTH3			RSHAOL			RSHA2			RSHA3			RHEE			RTOE			RM5			STRN			XIPH			LACR			LUAOL			LUA2			LUA3			LLAOL			LLA2			LLA3			LWRU			RACR			RUAOL			RUA2			RUA3			RLAOL			RLA2			RLA3			RWRU			USERMO0			USERMO1			USERMO2			USERMO3			USERMO4			USERMO5			
		X1	Y1	Z1	X2	Y2	Z2	X3	Y3	Z3	X4	Y4	Z4	X5	Y5	Z5	X6	Y6	Z6	X7	Y7	Z7	X8	Y8	Z8	X9	Y9	Z9	X10	Y10	Z10	X11	Y11	Z11	X12	Y12	Z12	X13	Y13	Z13	X14	Y14	Z14	X15	Y15	Z15	X16	Y16	Z16	X17	Y17	Z17	X18	Y18	Z18	X19	Y19	Z19	X20	Y20	Z20	X21	Y21	Z21	X22	Y22	Z22	X23	Y23	Z23	X24	Y24	Z24	X25	Y25	Z25	X26	Y26	Z26	X27	Y27	Z27	X28	Y28	Z28	X29	Y29	Z29	X30	Y30	Z30	X31	Y31	Z31	X32	Y32	Z32	X33	Y33	Z33	X34	Y34	Z34	X35	Y35	Z35	X36	Y36	Z36	X37	Y37	Z37	X38	Y38	Z38	X39	Y39	Z39	X40	Y40	Z40	X41	Y41	Z41	X42	Y42	Z42	X43	Y43	Z43	X44	Y44	Z44	X45	Y45	Z45	X46	Y46	Z46	X47	Y47	Z47	X48	Y48	Z48	X49	Y49	Z49	X50	Y50	Z50	X51	Y51	Z51	X52	Y52	Z52	X53	Y53	Z53	X54	Y54	Z54	X55	Y55	Z55	X56	Y56	Z56	X57	Y57	Z57	X58	Y58	Z58	X59	Y59	Z59	

1655	8.27	169.0500183105469	249.5823059082033	-2315.02685546875	198.1530151367188	251.7014923095703	-92.30208587646483	576.7452392578125	783.8757324218751	-1216.611328125	567.6484375	846.1820678710939	-1139.925903320312	562.217041015625	843.3097534179689	-1296.171630859375	402.1108093261719	966.2788696289064	-1213.196899414062	209.9195709228516	1022.288146972656	-1213.66064453125	175.2362213134766	1029.128295898438	-1214.7978515625	116.8973617553711	1027.255859375	-1160.025512695312	113.3212356567383	1026.454467773438	-1209.835205078125	59.01538848876953	1012.992492675781	-1207.793212890625	-8.192392349243164	1037.816772460938	-1206.663452148438	-60.88561248779297	1012.790405273438	-1151.8994140625	-67.07332611083984	1018.135192871094	-1201.445556640625	-139.9066925048828	955.1730957031251	-1218.354858398438	-126.2898559570312	957.3196411132814	-1168.643676757812	-184.921630859375	928.3452758789064	-1176.997314453125	-27.76397514343262	703.1847534179689	-1437.921630859375	-32.49504852294922	623.5547485351564	-1430.48779296875	8.013777732849121	652.6262817382814	-1439.198974609375	79.24846649169922	339.2879638671876	-1442.811767578125	35.46608352661133	274.9695739746095	-1429.586547851562	84.85189056396484	278.0289916992189	-1434.015869140625	-0.0879547968506813	66.49075317382821	-1333.942138671875	208.4845886230469	76.10415649414071	-1352.30126953125	159.336669921875	54.87613296508798	-1454.401733398438	2.063369750976562	670.3296508789064	-978.6024780273438	77.63818359375	644.5161132812501	-974.829833984375	35.27240371704102	617.7092895507814	-977.4817504882812	75.17711639404297	333.9314270019532	-979.7423095703125	109.3276901245117	262.5123596191407	-986.9869384765625	61.14284133911133	275.5309753417969	-993.0289916992188	1.078776359558105	64.5239334106446	-1100.285522460938	210.2982482910156	70.05622863769538	-1061.091552734375	154.0903167724609	67.64289093017584	-969.50927734375	326.8263244628906	809.8230590820314	-1222.336303710938	181.6876068115234	749.4227905273439	-1211.7197265625	352.8702392578125	852.3137817382814	-1417.333984375	292.5181884765625	745.0052490234376	-1490.463745117188	250.2935333251953	697.3068237304689	-1510.107788085938	292.7740478515625	678.9971923828126	-1487.237670898438	238.7053833007812	462.4572143554689	-1489.122924804688	209.8325500488281	404.9685058593751	-1500.594360351562	241.4666137695312	404.4516906738282	-1461.795288085938	207.9386444091797	314.296356201172	-1479.181518554688	371.734619140625	827.9794311523439	-1036.970947265625	320.8779602050781	688.4911499023439	-979.6312255859375	301.5072937011719	631.0641479492189	-1004.634094238281	305.3518981933594	629.1188354492189	-954.63720703125	254.9622192382812	443.2844848632813	-951.3792114257812	240.3952331542969	389.8849182128907	-985.7922973632812	240.4054565429688	382.3177185058594	-935.0630493164062	218.6226501464844	311.1965332031251	-934.6134643554688	0.02988759987056255	0.0074600400403142	-0.04462800174951553	0.01351079996675253	0.01433399971574545	-0.008229030296206473	0.006676230113953352	0.006170069798827172	-0.008159349672496319	0.010559500195086	1.96262001991272	-1.810089945793152	1.752799987792969	2.913490056991577	-1.885079979896545	2.883029937744141	0	0	
1656	8.275	169.0324554443359	249.581024169922	-2315.024658203125	198.1184539794922	251.7037048339844	-92.3040313720703	576.802490234375	783.7843017578126	-1216.740600585938	567.723388671875	846.1290283203126	-1140.053100585938	562.2470092773438	843.2179565429689	-1296.287963867188	402.1948852539062	966.2607421875001	-1213.254272460938	210.0007934570312	1022.327392578125	-1213.745849609375	175.3087768554688	1029.163452148438	-1214.902709960938	116.9937057495117	1027.380126953125	-1160.100463867188	113.3996276855469	1026.50390625	-1209.908325195312	59.07924652099609	1013.028564453125	-1207.807739257812	-8.156805992126465	1037.837036132812	-1206.640380859375	-60.82067489624023	1012.817016601563	-1151.8486328125	-67.03691864013672	1018.14404296875	-1201.391479492188	-139.8542327880859	955.1709594726564	-1218.262329101562	-126.2175216674805	957.3269042968751	-1168.533081054688	-184.8473358154297	928.3330078125001	-1176.8427734375	-27.75385284423828	703.1510009765626	-1437.7607421875	-32.47304534912109	623.5242919921876	-1430.318481445312	8.029782295227051	652.5977172851564	-1439.04638671875	79.25332641601562	339.2902221679689	-1442.726318359375	35.46123123168945	274.9759521484376	-1429.510131835938	84.84806823730469	278.0291137695314	-1433.947387695312	-0.1093802005052567	66.49403381347665	-1333.935180664062	208.4390258789062	76.09540557861337	-1352.292602539062	159.3202056884766	54.8620491027833	-1454.397216796875	2.24630069732666	670.3325195312501	-978.4530029296875	77.82264709472656	644.5003051757814	-974.7091674804688	35.44698715209961	617.7028198242189	-977.3466796875	75.28422546386719	333.8962097167969	-979.6752319335938	109.3992080688477	262.4624938964844	-986.984619140625	61.21642303466797	275.5029602050782	-992.982666015625	1.058696150779724	64.51143646240241	-1100.278564453125	210.2686309814453	70.09981536865241	-1061.063720703125	154.0820159912109	67.64875030517584	-969.4973754882812	326.8704528808594	809.7971191406251	-1222.334716796875	181.7035675048828	749.4349365234376	-1211.774780273438	352.9679565429688	852.3011474609376	-1417.363525390625	292.5577087402344	744.9419555664064	-1490.398803710938	250.3430023193359	697.2405395507814	-1510.037841796875	292.8119812011719	678.9322509765626	-1487.139282226562	238.6427612304688	462.4353637695314	-1489.019775390625	209.7354583740234	404.967010498047	-1500.513793945312	241.3595733642578	404.4230346679689	-1461.704956054688	207.8149871826172	314.2907714843751	-1479.127807617188	371.6194763183594	828.0533447265626	-1036.834838867188	320.6097717285156	688.6508178710939	-979.4417114257812	301.4284057617188	631.2523193359376	-1004.542785644531	304.9745178222656	629.2926025390626	-954.5352783203125	254.686767578125	443.4469299316407	-951.4406127929688	240.3768463134766	390.0294189453126	-985.9332275390625	240.0564575195312	382.4676818847657	-935.2079467773438	218.3567504882812	311.3528442382813	-934.864013671875	0.02977400086820126	0.007332039996981623	-0.04264429956674576	0.01313660014420748	0.01420789957046509	-0.008313659578561781	0.006728860083967447	0.006091730203479529	-0.008091219700872898	0.01066370029002428	1.959550023078918	-1.808079957962036	1.747910022735596	2.913660049438477	-1.885599970817566	2.881920099258423	0	0	
1657	8.279999999999999	169.0157470703125	249.5796051025392	-2315.023681640625	198.0856018066406	251.7057189941406	-92.30645751953124	576.864013671875	783.7104492187501	-1216.864868164062	567.8003540039062	846.0888671875001	-1140.181640625	562.2747802734375	843.1383056640626	-1296.406005859375	402.2750244140625	966.2498168945314	-1213.309326171875	210.0791931152344	1022.373046875	-1213.837524414062	175.3789367675781	1029.204711914062	-1215.015869140625	117.0863723754883	1027.509155273438	-1160.184692382812	113.4750366210938	1026.558959960938	-1209.990844726562	59.14202880859375	1013.0703125	-1207.83203125	-8.117833137512207	1037.86474609375	-1206.624389648438	-60.75372314453125	1012.850769042969	-1151.806518554688	-66.99819183349609	1018.161315917969	-1201.346557617188	-139.8011932373047	955.1765747070314	-1218.172241210938	-126.144401550293	957.3419799804689	-1168.433471679688	-184.7723846435547	928.3298950195314	-1176.699829101562	-27.73776054382324	703.1233520507814	-1437.602661132812	-32.44602584838867	623.5000610351564	-1430.150268554688	8.051656723022461	652.5743408203126	-1438.8935546875	79.25794219970703	339.2958984375001	-1442.635986328125	35.45645904541016	274.9851684570314	-1429.4306640625	84.843994140625	278.0326538085939	-1433.875244140625	-0.1307007968425751	66.49659729003915	-1333.929443359375	208.3941650390625	76.09140014648446	-1352.285400390625	159.30322265625	54.84788513183603	-1454.392822265625	2.421187162399292	670.3396606445314	-978.3109741210938	77.99755859375	644.4874267578126	-974.5942993164062	35.61234664916992	617.6998291015626	-977.2178955078125	75.38442230224609	333.8602600097657	-979.6165771484375	109.46484375	262.4134216308594	-986.9888305664062	61.28184509277344	275.4768371582032	-992.9468383789062	1.036824941635132	64.49727630615241	-1100.273803710938	210.2366180419922	70.14591979980476	-1061.03466796875	154.0738830566406	67.65664672851568	-969.485595703125	326.9130859375	809.7789916992189	-1222.328857421875	181.71826171875	749.4536132812501	-1211.831298828125	353.0630493164062	852.2868652343751	-1417.382568359375	292.6088256835938	744.8754272460939	-1490.3251953125	250.4046478271484	697.1696777343751	-1509.9580078125	292.8612365722656	678.8641967773439	-1487.02734375	238.5874633789062	462.4183959960939	-1488.915405273438	209.6385803222656	404.968231201172	-1500.4287109375	241.2535858154297	404.3952636718751	-1461.615234375	207.6899566650391	314.2867126464845	-1479.074340820312	371.4989929199219	828.1401977539064	-1036.693969726562	320.3352661132812	688.8197021484376	-979.2501831054688	301.3506164550781	631.4429931640626	-1004.4443359375	304.6015319824219	629.4758300781251	-954.4280395507812	254.4058380126953	443.6055603027344	-951.4896240234375	240.3539123535156	390.1738281250001	-986.0586547851562	239.6975860595703	382.6178283691407	-935.3402099609375	218.0865020751953	311.5098571777344	-935.1065063476562	0.0296350996941328	0.0072423298843205	-0.04064780101180077	0.01274500042200089	0.0140771996229887	-0.008390000090003014	0.006783099845051765	0.00603070016950369	-0.008018580265343189	0.01070789992809296	1.960690021514893	-1.811820030212402	1.749130010604858	2.913880109786987	-1.886100053787231	2.88073992729187	0	0	
1658	8.285	168.9998779296875	249.5781555175783	-2315.024169921875	198.0544586181641	251.7076263427734	-92.3092575073242	576.9285888671875	783.6524047851564	-1216.98486328125	567.8787841796875	846.0607910156251	-1140.310424804688	562.30029296875	843.0700073242189	-1296.5244140625	402.3514404296875	966.2455444335939	-1213.361450195312	210.1544952392578	1022.424194335938	-1213.93505859375	175.4467163085938	1029.25146484375	-1215.1357421875	117.1751937866211	1027.6416015625	-1160.277221679688	113.5473403930664	1026.61865234375	-1210.081665039062	59.20349502563477	1013.116638183594	-1207.86572265625	-8.076037406921387	1037.899291992188	-1206.614624023438	-60.68520736694336	1012.890563964844	-1151.7724609375	-66.95749664306641	1018.18603515625	-1201.309692382812	-139.74853515625	955.1885986328126	-1218.08203125	-126.0708465576172	957.3635253906251	-1168.343872070312	-184.6970062255859	928.3346557617189	-1176.567993164062	-27.7151985168457	703.1019897460939	-1437.447387695312	-32.41354370117188	623.4821777343751	-1429.984008789062	8.079899787902832	652.5565185546876	-1438.741088867188	79.26268005371094	339.3050231933595	-1442.541381835938	35.45198059082031	274.9974060058595	-1429.34912109375	84.83985900878906	278.0396118164064	-1433.799926757812	-0.1518856734037399	66.49838256835946	-1333.924926757812	208.3502197265625	76.09245300292977	-1352.279663085938	159.2857208251953	54.83381271362314	-1454.388549804688	2.588770151138306	670.3502807617189	-978.177001953125	78.16355133056641	644.4771118164064	-974.4857177734375	35.76927947998047	617.6997070312501	-977.095703125	75.47792053222656	333.8238830566407	-979.5665893554688	109.5246887207031	262.3654174804688	-986.998779296875	61.3393440246582	275.4529724121094	-992.9209594726562	1.013511180877686	64.48175048828132	-1100.271240234375	210.2026824951172	70.19390869140632	-1061.004760742188	154.0660095214844	67.66644287109381	-969.4739379882812	326.9539489746094	809.7679443359376	-1222.318969726562	181.7317047119141	749.4781494140626	-1211.884887695312	353.1546936035156	852.2705078125001	-1417.390014648438	292.6710815429688	744.8063354492189	-1490.244140625	250.4775238037109	697.0947265625001	-1509.868774414062	292.9215698242188	678.7938232421876	-1486.90380859375	238.5413665771484	462.4066162109376	-1488.810668945312	209.5439605712891	404.9719238281251	-1500.339599609375	241.1507873535156	404.3688049316407	-1461.527709960938	207.5652465820312	314.2840270996095	-1479.020751953125	371.3753967285156	828.2369384765626	-1036.55078125	320.0561828613281	688.9939575195314	-979.06005859375	301.2734375	631.6323242187501	-1004.341552734375	304.2335510253906	629.6641845703126	-954.318359375	254.1204528808594	443.7581787109376	-951.5248413085938	240.3277587890625	390.3155517578126	-986.1666870117188	239.3284301757812	382.7660522460938	-935.457763671875	217.8121948242188	311.6659240722657	-935.3392333984375	0.02947009913623333	0.007189829833805564	-0.03871329873800278	0.01235490012913942	0.01395079959183931	-0.008453790098428726	0.006840379908680916	0.005987280048429967	-0.007940730080008507	0.01068670023232698	1.965620040893555	-1.820539951324463	1.755769968032837	2.914139986038208	-1.886770009994507	2.879509925842285	0	0	
